<svg xmlns="http://www.w3.org/2000/svg" viewBox="0 0 1024 750"><defs><style>.cls-1{fill:#beef54;}.cls-1,.cls-10,.cls-12,.cls-13,.cls-14,.cls-15,.cls-7,.cls-8,.cls-9{stroke:#000;}.cls-1,.cls-10,.cls-12,.cls-13,.cls-14,.cls-15,.cls-2,.cls-5,.cls-7,.cls-8,.cls-9{stroke-miterlimit:10;}.cls-1,.cls-9{stroke-width:0.25px;}.cls-2{fill:#f4eac3;stroke-width:9px;}.cls-2,.cls-5{stroke:#666;}.cls-3{fill:#8bc8ff;}.cls-16,.cls-17,.cls-18,.cls-3{fill-rule:evenodd;}.cls-4{fill:#b9def9;}.cls-5{fill:#736000;}.cls-6{fill:#735400;}.cls-7{fill:#f7dfbc;}.cls-10,.cls-12,.cls-13,.cls-14,.cls-15,.cls-7,.cls-8{stroke-width:0.5px;}.cls-8{fill:#ffd9a2;}.cls-9{fill:#edb63b;}.cls-10{fill:#a8a6a3;}.cls-11,.cls-17{fill:#734916;}.cls-12{fill:#ef7f7f;}.cls-13,.cls-16{fill:#00335c;}.cls-14{fill:#8b4700;}.cls-15{fill:none;}.cls-18{fill:#542f08;}.cls-19{fill:#00733d;}.cls-20{fill:#b6ddef;}.cls-21{fill:#c6e4f4;}.cls-22{fill:#b7d9ed;}</style></defs><title>Artboard 1</title><g id="Land"><path class="cls-1" d="M908.5,290s-58.37,3.54-94.92,14.07S636.7,350.42,624.91,354.64s-66,16.85-75.46,29S683.28,421,683.28,421H872.54L889,378.86l18.87-24.22Z"/></g><g id="Layer_1" data-name="Layer 1"><rect class="cls-2" x="473.5" y="85.5" width="436" height="384" rx="151.86" ry="151.86"/></g><g id="Water"><path class="cls-3" d="M956,412a25.74,25.74,0,0,1-8.21,18.72A28.66,28.66,0,0,1,928,438.5H854.72c13.35,0,24.27,10.35,24.27,23a22.33,22.33,0,0,1-7.13,16.24,24.87,24.87,0,0,1-17.14,6.76h-68c8.42,0,15.3,6.52,15.3,14.5a14,14,0,0,1-4.5,10.24,15.63,15.63,0,0,1-10.8,4.26h-154c-8.42,0-15.29-6.52-15.29-14.5a14.08,14.08,0,0,1,4.49-10.24,15.63,15.63,0,0,1,10.8-4.26H182.71c-13.34,0-24.26-10.35-24.26-23a22.33,22.33,0,0,1,7.13-16.24,24.84,24.84,0,0,1,17.13-6.76H91.46c-15.38,0-28-11.92-28-26.5a25.74,25.74,0,0,1,8.21-18.72,28.66,28.66,0,0,1,19.75-7.78H928C943.42,385.5,956,397.42,956,412Z"/><rect class="cls-4" x="195" y="402" width="161" height="19" rx="9.5" ry="9.5"/><rect class="cls-4" x="331" y="442" width="264" height="24" rx="9.5" ry="9.5"/><rect class="cls-4" x="584" y="396" width="208" height="24" rx="12" ry="12"/><rect class="cls-4" x="672" y="469" width="91" height="19" rx="9.5" ry="9.5"/></g><g id="Deck"><rect class="cls-5" x="687.5" y="345.5" width="221" height="13"/><path class="cls-6" d="M741.5,335.5h11a12,12,0,0,1,12,12v60a0,0,0,0,1,0,0h-35a0,0,0,0,1,0,0v-60A12,12,0,0,1,741.5,335.5Z"/><path class="cls-6" d="M855,336h11a12,12,0,0,1,12,12v60a0,0,0,0,1,0,0H843a0,0,0,0,1,0,0V348A12,12,0,0,1,855,336Z"/></g><g id="Fisherman"><g id="Fishing_Hat" data-name="Fishing Hat"><path class="cls-7" d="M789,243.94s-4.9.56-7.09-1.7c0,0-3.28,1.13-2.19-2.26a8.46,8.46,0,0,1-2.62-4.17l4.4-7.31,6-8,8-2,4,10-6,17-4.5-1.56"/><polygon id="Leg" class="cls-8" points="674 328 681 320 692 330 680 336 672 332 672 332 674 328"/><path class="cls-9" d="M791.5,211.5l-5-3s-19-4-14,16l4,5-7,14s11-8,13-11,2-6,7-11c3-3,6-5.27,8.12-7.26a10.09,10.09,0,0,0,2.88-3.74c1-3,2-4,3-6S791.5,211.5,791.5,211.5Z"/><path class="cls-10" d="M804.5,222.5s-1-5-7-8l-9,8C791.08,224,791,225,791,225c2-2,2,1,2,1a3.7,3.7,0,0,1,2,3c0,2-8,7-10,9a7.56,7.56,0,0,0-2,4.93,10.27,10.27,0,0,0,6,1c3.5-.44,10.5-13.44,10.5-13.44l5-8"/></g><path class="cls-11" d="M748.42,263.75S659,199,588,200v1c71-1,160.42,65.74,160.42,65.74"/><path class="cls-12" d="M744.77,290.84S740.93,286,743,273c1-6,8-12.7,16.45-18.13C769.23,248.6,780.82,244,787,244l2-.06,20.21,8.86L790.5,295.5l-7.62,17.3-35.63-18.21-2.48-3.75"/><path class="cls-12" d="M805.86,258.2S795.08,265.41,787,251c0,0,2.69-10.83,5.39-15.64S804.06,220.9,805,222.1s8.08-3.61,9,8.42S805.86,258.2,805.86,258.2Z"/><path class="cls-13" d="M727,288a53.07,53.07,0,0,0-19,4c-9,4-22,20-27,26s10,15,13,13,16-12,20-17h4l10-23,1.64-2.14Z"/><path class="cls-14" d="M674,327s-6,1-10-2-5-3-8-2-2,5,0,6,17,14,22,14,6-3,6-4v-4C684,334,675,333,674,327Z"/><path class="cls-15" d="M542.5,433.5c0-11,9.83-48,9.83-48l36.17-184s7,6,32,4c23,14,40,12,40,12s13.64,18.93,49,26l5,1"/></g><g id="Chair"><polygon class="cls-16" points="765.99 322.55 732.16 316.51 736.21 307.28 765.99 322.55"/><path class="cls-17" d="M784.72,325.89l.65.12-1.06,5.91h-.07l-54.57-9.74-12.6-2.25,1-5.91,14,2.5,33.83,6,11.69,2.09,9.72-22.14-48.13-5.21a3.5,3.5,0,0,1,.38-7l.37,0,49.71,5.38a2.9,2.9,0,0,1,.6.12l44.82-102.12,6.35,2.79Z"/><path class="cls-17" d="M726.07,295.56l-1,2.16c0-.08,0-.17.07-.26a4.48,4.48,0,0,1,.33-.83l.21-.42Z"/><path class="cls-18" d="M815.49,334.58l-3.25,6.33a4.59,4.59,0,0,1-6.17,2L784,331.6l-18.2-9.29-29.69-15.17-4,9.17-2.48,5.62-9.4,21.34a4.57,4.57,0,0,1-6,2.34L713,345.1l-3.21-1.4a4.56,4.56,0,0,1-2.35-6l10.52-23.87,2.81-6.39,4.31-9.78,1-2.14,2.7-5.27a4.5,4.5,0,0,1,2.21-2.08,4.56,4.56,0,0,1,4,.11l4.07,2.07,17,8.69,26.66,13.62,6.18,3.15,24.73,12.63A4.56,4.56,0,0,1,815.49,334.58Z"/></g><g id="Environment"><path class="cls-19" d="M886.17,157.21c-18.38,2.71-36.92,2.67-55.37,1.45a296.59,296.59,0,0,1-54.91-9.07c-18-4.86-35.81-11.62-52-21.68-1-.61-2-1.29-3-1.94s-2-1.34-2.95-2q-2.94-2-5.71-4.32a104.25,104.25,0,0,1-10.51-9.75c-6.4-7.08-11.86-15.2-14.63-24.16l.8-.42A75.16,75.16,0,0,0,705,106.24a120.5,120.5,0,0,0,22.38,15.36c16,8.62,33.31,14.62,50.87,19.3a432.63,432.63,0,0,0,53.55,10.61q13.53,1.86,27.16,3c9.07.82,18.17,1.47,27.26,1.76Z"/></g><g id="Clouds"><path class="cls-20" d="M319.48,139.19a13.31,13.31,0,0,1,.21,2.37c0,8-6.76,14.44-15.09,14.44a15.24,15.24,0,0,1-12.69-6.64A15.56,15.56,0,0,1,279.05,156c-8.5,0-15.39-6.59-15.39-14.73a14.22,14.22,0,0,1,1.55-6.46,12.66,12.66,0,0,1-7.71-11.52c0-7,5.93-12.67,13.24-12.67a13.43,13.43,0,0,1,10.64,5.14,15.38,15.38,0,0,1,14.29-9.26A15.62,15.62,0,0,1,307.62,112a16.15,16.15,0,0,1,8.68-2.5c8.67,0,15.7,6.73,15.7,15A15.21,15.21,0,0,1,319.48,139.19Z"/><path class="cls-21" d="M528,85.79a15.93,15.93,0,0,1,.25,2.86c0,9.58-8.12,17.35-18.13,17.35a18.3,18.3,0,0,1-15.26-8,18.7,18.7,0,0,1-15.46,8c-10.22,0-18.5-7.93-18.5-17.71a17,17,0,0,1,1.87-7.76,15.21,15.21,0,0,1-9.27-13.84c0-8.41,7.13-15.23,15.91-15.23a16.16,16.16,0,0,1,12.8,6.17A18.47,18.47,0,0,1,499.33,46.5a18.78,18.78,0,0,1,14.37,6.55,19.39,19.39,0,0,1,10.43-3C534.55,50,543,58.13,543,68.1A18.27,18.27,0,0,1,528,85.79Z"/><path class="cls-22" d="M974.48,93.19a13.31,13.31,0,0,1,.21,2.37c0,8-6.76,14.44-15.09,14.44a15.24,15.24,0,0,1-12.69-6.64A15.56,15.56,0,0,1,934.05,110c-8.5,0-15.39-6.59-15.39-14.73a14.22,14.22,0,0,1,1.55-6.46,12.66,12.66,0,0,1-7.71-11.52c0-7,5.93-12.67,13.24-12.67a13.43,13.43,0,0,1,10.64,5.14,15.38,15.38,0,0,1,14.29-9.26,15.62,15.62,0,0,1,12,5.45,16.15,16.15,0,0,1,8.68-2.5c8.67,0,15.7,6.73,15.7,15A15.21,15.21,0,0,1,974.48,93.19Z"/></g></svg>